<?xml version="1.0" standalone="no"?>
<!DOCTYPE svg PUBLIC "-//W3C//DTD SVG 20010904//EN"
 "http://www.w3.org/TR/2001/REC-SVG-20010904/DTD/svg10.dtd">
<svg version="1.0" xmlns="http://www.w3.org/2000/svg"
 width="407.000000pt" height="407.000000pt" viewBox="0 0 407.000000 407.000000"
 preserveAspectRatio="xMidYMid meet">
<metadata>
Created by potrace 1.14, written by Peter Selinger 2001-2017
</metadata>
<g transform="translate(0.000000,407.000000) scale(0.100000,-0.100000)"
fill="#000000" stroke="none">
<path d="M180 3783 c0 -148 -3 -1059 -6 -2025 l-7 -1758 1863 0 1862 0 -6
1488 c-4 818 -7 1729 -6 2025 l0 537 -1850 0 -1850 0 0 -267z m1100 -60 c0
-10 -42 -177 -94 -373 -52 -195 -147 -553 -211 -795 -64 -242 -180 -678 -257
-970 -77 -291 -145 -549 -150 -573 -5 -23 -12 -42 -14 -42 -2 0 -4 623 -4
1385 l0 1385 365 0 c339 0 365 -1 365 -17z m2230 -1445 c0 -1218 -2 -1459 -13
-1443 -8 11 -55 99 -107 195 -51 96 -105 198 -120 225 -15 28 -179 334 -365
680 -185 347 -389 725 -451 841 -63 117 -114 215 -114 218 0 3 80 6 178 6
l177 0 112 -207 c61 -115 132 -246 157 -293 162 -306 214 -402 221 -403 4 -1
7 138 6 308 0 171 -1 469 -1 663 l0 352 -612 -2 -612 -3 -26 -90 c-14 -49 -39
-142 -54 -205 l-28 -115 185 -345 c366 -683 537 -1004 537 -1007 0 -2 -244 -4
-542 -5 l-543 -3 -53 -200 c-65 -249 -120 -456 -172 -650 -22 -82 -40 -154
-40 -158 0 -4 44 -6 97 -5 l96 3 42 150 c23 83 52 170 64 195 58 111 205 217
331 240 33 6 237 9 504 8 l449 -3 235 -440 c129 -242 237 -448 239 -457 5 -15
-10 -17 -170 -17 l-175 0 -159 297 -159 297 -353 3 c-475 3 -444 22 -535 -333
-31 -121 -61 -230 -66 -243 l-10 -22 -420 0 c-231 1 -420 4 -420 8 0 7 198
764 293 1122 14 52 62 235 107 405 45 171 114 436 155 590 41 154 133 505 205
780 72 275 133 506 135 513 3 9 192 12 900 12 l895 0 0 -1462z"/>
<path d="M1726 2528 c-3 -13 -37 -142 -75 -287 -38 -146 -68 -268 -65 -273 7
-11 451 -10 458 1 3 5 -53 119 -125 252 -73 134 -141 263 -152 287 -24 48 -32
52 -41 20z"/>
</g>
</svg>
